<mxfile host="Electron" agent="Mozilla/5.0 (Windows NT 10.0; Win64; x64) AppleWebKit/537.36 (KHTML, like Gecko) draw.io/28.0.4 Chrome/138.0.7204.97 Electron/37.2.1 Safari/537.36" version="28.0.4">
  <diagram name="Страница — 1" id="QuSMrsaTc8MP4F4kiNQF">
    <mxGraphModel dx="2189" dy="1363" grid="1" gridSize="10" guides="1" tooltips="1" connect="1" arrows="1" fold="1" page="0" pageScale="1" pageWidth="1169" pageHeight="827" math="0" shadow="0">
      <root>
        <mxCell id="0" />
        <mxCell id="1" parent="0" />
        <mxCell id="4JZ9h9YK1ufNmpq5-3Gf-28" value="" style="endArrow=none;dashed=1;html=1;rounded=0;" parent="1" edge="1">
          <mxGeometry width="50" height="50" relative="1" as="geometry">
            <mxPoint y="1142.1333821614585" as="sourcePoint" />
            <mxPoint y="40" as="targetPoint" />
          </mxGeometry>
        </mxCell>
        <mxCell id="Y_vd4BQVCZv7Dsui712i-14" style="edgeStyle=orthogonalEdgeStyle;rounded=0;orthogonalLoop=1;jettySize=auto;html=1;exitX=0;exitY=0.75;exitDx=0;exitDy=0;entryX=0;entryY=0.75;entryDx=0;entryDy=0;fillColor=#dae8fc;strokeColor=#6c8ebf;jumpStyle=none;" parent="1" source="4JZ9h9YK1ufNmpq5-3Gf-56" target="Y_vd4BQVCZv7Dsui712i-1" edge="1">
          <mxGeometry relative="1" as="geometry">
            <Array as="points">
              <mxPoint x="-220" y="620" />
              <mxPoint x="-220" y="1110" />
            </Array>
          </mxGeometry>
        </mxCell>
        <mxCell id="4JZ9h9YK1ufNmpq5-3Gf-72" value="" style="shape=flexArrow;endArrow=classic;html=1;rounded=0;fillColor=#d5e8d4;strokeColor=#82b366;entryX=0;entryY=0.5;entryDx=0;entryDy=0;exitX=1;exitY=0.5;exitDx=0;exitDy=0;" parent="1" source="d5LIiJNJ_tfaaFNY0r7_-4" edge="1">
          <mxGeometry width="50" height="50" relative="1" as="geometry">
            <mxPoint x="-20" y="515" as="sourcePoint" />
            <mxPoint x="270" y="820" as="targetPoint" />
            <Array as="points">
              <mxPoint x="220" y="430" />
              <mxPoint x="220" y="820" />
            </Array>
          </mxGeometry>
        </mxCell>
        <mxCell id="Y_vd4BQVCZv7Dsui712i-16" style="edgeStyle=orthogonalEdgeStyle;rounded=0;orthogonalLoop=1;jettySize=auto;html=1;exitX=0.75;exitY=1;exitDx=0;exitDy=0;entryX=0;entryY=0.5;entryDx=0;entryDy=0;" parent="1" source="4JZ9h9YK1ufNmpq5-3Gf-1" target="4JZ9h9YK1ufNmpq5-3Gf-10" edge="1">
          <mxGeometry relative="1" as="geometry" />
        </mxCell>
        <mxCell id="4JZ9h9YK1ufNmpq5-3Gf-1" value="lcvm_core.c&lt;div&gt;ядро виртуальной машины&lt;/div&gt;" style="rounded=0;whiteSpace=wrap;html=1;snapToPoint=0;" parent="1" vertex="1">
          <mxGeometry x="270" y="690" width="120" height="240" as="geometry" />
        </mxCell>
        <mxCell id="4JZ9h9YK1ufNmpq5-3Gf-2" value="lcvm_core_macros.h&lt;div&gt;макросы&lt;/div&gt;" style="rounded=1;whiteSpace=wrap;html=1;" parent="1" vertex="1">
          <mxGeometry x="490" y="850" width="200" height="40" as="geometry" />
        </mxCell>
        <mxCell id="4JZ9h9YK1ufNmpq5-3Gf-3" value="lcvm_core_exceptions.h&lt;div&gt;коды исключений&lt;/div&gt;" style="rounded=1;whiteSpace=wrap;html=1;" parent="1" vertex="1">
          <mxGeometry x="490" y="890" width="200" height="40" as="geometry" />
        </mxCell>
        <mxCell id="4JZ9h9YK1ufNmpq5-3Gf-4" value="lcvm_core.h&lt;div&gt;прототипы функций ядра,&lt;/div&gt;&lt;div&gt;определение типов данных,&lt;/div&gt;&lt;div&gt;extern-прототипы переменных&lt;/div&gt;" style="rounded=1;whiteSpace=wrap;html=1;" parent="1" vertex="1">
          <mxGeometry x="490" y="790" width="200" height="60" as="geometry" />
        </mxCell>
        <mxCell id="4JZ9h9YK1ufNmpq5-3Gf-5" value="lcvm_port_io.h&lt;div&gt;&lt;div&gt;прототипы функций взаимодействия с IO-переменными&lt;/div&gt;&lt;/div&gt;" style="rounded=1;whiteSpace=wrap;html=1;" parent="1" vertex="1">
          <mxGeometry x="490" y="550" width="200" height="60" as="geometry" />
        </mxCell>
        <mxCell id="Y_vd4BQVCZv7Dsui712i-17" style="edgeStyle=orthogonalEdgeStyle;rounded=0;orthogonalLoop=1;jettySize=auto;html=1;exitX=0.5;exitY=1;exitDx=0;exitDy=0;entryX=0.5;entryY=0;entryDx=0;entryDy=0;" parent="1" source="4JZ9h9YK1ufNmpq5-3Gf-10" target="4JZ9h9YK1ufNmpq5-3Gf-12" edge="1">
          <mxGeometry relative="1" as="geometry" />
        </mxCell>
        <mxCell id="4JZ9h9YK1ufNmpq5-3Gf-10" value="opcodes/interpreter.inc&lt;div&gt;интерпретатор байт-кода&lt;/div&gt;" style="rounded=1;whiteSpace=wrap;html=1;" parent="1" vertex="1">
          <mxGeometry x="490" y="950" width="200" height="40" as="geometry" />
        </mxCell>
        <mxCell id="4JZ9h9YK1ufNmpq5-3Gf-12" value="opcodes/OPCODE_*.inc&lt;div&gt;реализации кодов операций&lt;/div&gt;" style="rounded=1;whiteSpace=wrap;html=1;" parent="1" vertex="1">
          <mxGeometry x="490" y="1010" width="200" height="40" as="geometry" />
        </mxCell>
        <mxCell id="Y_vd4BQVCZv7Dsui712i-8" style="edgeStyle=orthogonalEdgeStyle;rounded=0;orthogonalLoop=1;jettySize=auto;html=1;exitX=0.5;exitY=0;exitDx=0;exitDy=0;entryX=1;entryY=0.5;entryDx=0;entryDy=0;fillColor=#ffe6cc;strokeColor=#d79b00;" parent="1" source="4JZ9h9YK1ufNmpq5-3Gf-15" target="4JZ9h9YK1ufNmpq5-3Gf-31" edge="1">
          <mxGeometry relative="1" as="geometry" />
        </mxCell>
        <mxCell id="4JZ9h9YK1ufNmpq5-3Gf-15" value="lcvm_syscall.c&lt;div&gt;вызов системных функций из байт-кода&lt;/div&gt;" style="rounded=0;whiteSpace=wrap;html=1;fillColor=#ffe6cc;strokeColor=#d79b00;" parent="1" vertex="1">
          <mxGeometry x="40" y="860" width="120" height="80" as="geometry" />
        </mxCell>
        <mxCell id="4JZ9h9YK1ufNmpq5-3Gf-73" style="edgeStyle=orthogonalEdgeStyle;rounded=0;orthogonalLoop=1;jettySize=auto;html=1;exitX=0.75;exitY=0;exitDx=0;exitDy=0;fillColor=#d5e8d4;strokeColor=#82b366;entryX=1;entryY=0.25;entryDx=0;entryDy=0;strokeWidth=3;" parent="1" source="4JZ9h9YK1ufNmpq5-3Gf-20" target="4JZ9h9YK1ufNmpq5-3Gf-68" edge="1">
          <mxGeometry relative="1" as="geometry">
            <mxPoint x="-30" y="450" as="targetPoint" />
          </mxGeometry>
        </mxCell>
        <mxCell id="d5LIiJNJ_tfaaFNY0r7_-14" style="edgeStyle=orthogonalEdgeStyle;rounded=0;orthogonalLoop=1;jettySize=auto;html=1;exitX=1;exitY=0.25;exitDx=0;exitDy=0;entryX=0;entryY=0.5;entryDx=0;entryDy=0;" parent="1" source="4JZ9h9YK1ufNmpq5-3Gf-20" target="4JZ9h9YK1ufNmpq5-3Gf-5" edge="1">
          <mxGeometry relative="1" as="geometry" />
        </mxCell>
        <mxCell id="d5LIiJNJ_tfaaFNY0r7_-23" style="edgeStyle=orthogonalEdgeStyle;rounded=0;orthogonalLoop=1;jettySize=auto;html=1;exitX=1;exitY=0.75;exitDx=0;exitDy=0;entryX=-0.001;entryY=0.337;entryDx=0;entryDy=0;entryPerimeter=0;" parent="1" source="4JZ9h9YK1ufNmpq5-3Gf-20" target="4JZ9h9YK1ufNmpq5-3Gf-4" edge="1">
          <mxGeometry relative="1" as="geometry">
            <mxPoint x="460" y="810" as="targetPoint" />
            <Array as="points">
              <mxPoint x="460" y="620" />
              <mxPoint x="460" y="810" />
            </Array>
          </mxGeometry>
        </mxCell>
        <mxCell id="d5LIiJNJ_tfaaFNY0r7_-24" style="edgeStyle=orthogonalEdgeStyle;rounded=0;orthogonalLoop=1;jettySize=auto;html=1;exitX=1;exitY=0.5;exitDx=0;exitDy=0;entryX=0;entryY=0.25;entryDx=0;entryDy=0;" parent="1" source="4JZ9h9YK1ufNmpq5-3Gf-20" target="d5LIiJNJ_tfaaFNY0r7_-13" edge="1">
          <mxGeometry relative="1" as="geometry">
            <Array as="points">
              <mxPoint x="470" y="600" />
              <mxPoint x="470" y="720" />
            </Array>
          </mxGeometry>
        </mxCell>
        <mxCell id="4JZ9h9YK1ufNmpq5-3Gf-20" value="lcvm_runtime.c&lt;div&gt;Runtime LCVM&lt;/div&gt;" style="rounded=0;whiteSpace=wrap;html=1;" parent="1" vertex="1">
          <mxGeometry x="270" y="560" width="120" height="80" as="geometry" />
        </mxCell>
        <mxCell id="4JZ9h9YK1ufNmpq5-3Gf-22" value="" style="shape=flexArrow;endArrow=classic;html=1;rounded=0;exitX=0.5;exitY=1;exitDx=0;exitDy=0;entryX=0.5;entryY=0;entryDx=0;entryDy=0;" parent="1" source="4JZ9h9YK1ufNmpq5-3Gf-20" target="4JZ9h9YK1ufNmpq5-3Gf-1" edge="1">
          <mxGeometry width="50" height="50" relative="1" as="geometry">
            <mxPoint x="230" y="820" as="sourcePoint" />
            <mxPoint x="330" y="680" as="targetPoint" />
          </mxGeometry>
        </mxCell>
        <mxCell id="4JZ9h9YK1ufNmpq5-3Gf-23" value="" style="shape=flexArrow;endArrow=classic;html=1;rounded=0;exitX=0;exitY=0.875;exitDx=0;exitDy=0;entryX=1;entryY=0.5;entryDx=0;entryDy=0;fillColor=#ffe6cc;strokeColor=#d79b00;exitPerimeter=0;" parent="1" source="4JZ9h9YK1ufNmpq5-3Gf-1" target="4JZ9h9YK1ufNmpq5-3Gf-15" edge="1">
          <mxGeometry width="50" height="50" relative="1" as="geometry">
            <mxPoint x="180" y="780" as="sourcePoint" />
            <mxPoint x="230" y="730" as="targetPoint" />
          </mxGeometry>
        </mxCell>
        <mxCell id="4JZ9h9YK1ufNmpq5-3Gf-24" value="Управление ядром&amp;nbsp;&lt;div&gt;LCVM&lt;/div&gt;" style="text;html=1;align=left;verticalAlign=middle;resizable=0;points=[];autosize=1;strokeColor=none;fillColor=none;" parent="1" vertex="1">
          <mxGeometry x="350" y="640" width="130" height="40" as="geometry" />
        </mxCell>
        <mxCell id="4JZ9h9YK1ufNmpq5-3Gf-25" value="Запрос на&amp;nbsp;&lt;div&gt;системный&amp;nbsp;&lt;/div&gt;&lt;div&gt;&lt;span style=&quot;background-color: transparent; color: light-dark(rgb(0, 0, 0), rgb(255, 255, 255));&quot;&gt;вызов&amp;nbsp;&lt;/span&gt;&lt;/div&gt;" style="text;html=1;align=left;verticalAlign=middle;resizable=0;points=[];autosize=1;strokeColor=none;fillColor=none;" parent="1" vertex="1">
          <mxGeometry x="190" y="840" width="90" height="60" as="geometry" />
        </mxCell>
        <mxCell id="4JZ9h9YK1ufNmpq5-3Gf-26" value="" style="shape=flexArrow;endArrow=classic;html=1;rounded=0;exitX=0;exitY=0.5;exitDx=0;exitDy=0;fillColor=#ffe6cc;strokeColor=#d79b00;entryX=1;entryY=0.5;entryDx=0;entryDy=0;" parent="1" source="4JZ9h9YK1ufNmpq5-3Gf-15" target="4JZ9h9YK1ufNmpq5-3Gf-33" edge="1">
          <mxGeometry width="50" height="50" relative="1" as="geometry">
            <mxPoint x="-70" y="870" as="sourcePoint" />
            <mxPoint x="-50" y="900" as="targetPoint" />
          </mxGeometry>
        </mxCell>
        <mxCell id="4JZ9h9YK1ufNmpq5-3Gf-29" value="&lt;font style=&quot;font-size: 33px;&quot;&gt;LCVM Lib&lt;/font&gt;" style="text;html=1;align=center;verticalAlign=middle;resizable=0;points=[];autosize=1;strokeColor=none;fillColor=none;" parent="1" vertex="1">
          <mxGeometry x="400" y="70" width="170" height="50" as="geometry" />
        </mxCell>
        <mxCell id="4JZ9h9YK1ufNmpq5-3Gf-30" value="&lt;font style=&quot;font-size: 33px;&quot;&gt;ports/lcvm&lt;/font&gt;" style="text;html=1;align=center;verticalAlign=middle;resizable=0;points=[];autosize=1;strokeColor=none;fillColor=none;" parent="1" vertex="1">
          <mxGeometry x="-640" y="550" width="170" height="50" as="geometry" />
        </mxCell>
        <mxCell id="Y_vd4BQVCZv7Dsui712i-9" style="edgeStyle=orthogonalEdgeStyle;rounded=0;orthogonalLoop=1;jettySize=auto;html=1;exitX=0;exitY=0.5;exitDx=0;exitDy=0;entryX=1;entryY=0.5;entryDx=0;entryDy=0;fillColor=#ffe6cc;strokeColor=#d79b00;" parent="1" source="4JZ9h9YK1ufNmpq5-3Gf-31" target="4JZ9h9YK1ufNmpq5-3Gf-34" edge="1">
          <mxGeometry relative="1" as="geometry" />
        </mxCell>
        <mxCell id="4JZ9h9YK1ufNmpq5-3Gf-31" value="lcvm_port_syscall_bindings.inc&lt;div&gt;таблица с зарегистрированными системными вызовами&lt;/div&gt;" style="rounded=1;whiteSpace=wrap;html=1;fillColor=#ffe6cc;strokeColor=#d79b00;" parent="1" vertex="1">
          <mxGeometry x="-210" y="760" width="180" height="80" as="geometry" />
        </mxCell>
        <mxCell id="Y_vd4BQVCZv7Dsui712i-10" style="edgeStyle=orthogonalEdgeStyle;rounded=0;orthogonalLoop=1;jettySize=auto;html=1;exitX=0;exitY=0.25;exitDx=0;exitDy=0;entryX=0.5;entryY=1;entryDx=0;entryDy=0;fillColor=#ffe6cc;strokeColor=#d79b00;" parent="1" source="4JZ9h9YK1ufNmpq5-3Gf-33" target="4JZ9h9YK1ufNmpq5-3Gf-34" edge="1">
          <mxGeometry relative="1" as="geometry" />
        </mxCell>
        <mxCell id="Y_vd4BQVCZv7Dsui712i-15" style="edgeStyle=orthogonalEdgeStyle;rounded=0;orthogonalLoop=1;jettySize=auto;html=1;exitX=0.5;exitY=1;exitDx=0;exitDy=0;entryX=0;entryY=0.25;entryDx=0;entryDy=0;fillColor=#ffe6cc;strokeColor=#d79b00;" parent="1" source="4JZ9h9YK1ufNmpq5-3Gf-33" target="Y_vd4BQVCZv7Dsui712i-1" edge="1">
          <mxGeometry relative="1" as="geometry" />
        </mxCell>
        <mxCell id="4JZ9h9YK1ufNmpq5-3Gf-33" value="lcvm_port_syscall_handlers.c&lt;div&gt;реализации системных вызовов&lt;/div&gt;" style="rounded=0;whiteSpace=wrap;html=1;fillColor=#ffe6cc;strokeColor=#d79b00;" parent="1" vertex="1">
          <mxGeometry x="-210" y="860" width="180" height="80" as="geometry" />
        </mxCell>
        <mxCell id="4JZ9h9YK1ufNmpq5-3Gf-34" value="lcvm_port_syscall_handlers.h&lt;div&gt;прототипы системных вызовов&lt;/div&gt;" style="rounded=1;whiteSpace=wrap;html=1;fillColor=#ffe6cc;strokeColor=#d79b00;" parent="1" vertex="1">
          <mxGeometry x="-410" y="760" width="170" height="80" as="geometry" />
        </mxCell>
        <mxCell id="4JZ9h9YK1ufNmpq5-3Gf-41" value="" style="shape=flexArrow;endArrow=classic;html=1;rounded=0;entryX=0.25;entryY=1;entryDx=0;entryDy=0;fillColor=#ffe6cc;strokeColor=#d79b00;exitX=0.75;exitY=1;exitDx=0;exitDy=0;" parent="1" source="4JZ9h9YK1ufNmpq5-3Gf-33" target="4JZ9h9YK1ufNmpq5-3Gf-1" edge="1">
          <mxGeometry width="50" height="50" relative="1" as="geometry">
            <mxPoint x="-100" y="940" as="sourcePoint" />
            <mxPoint x="300" y="950" as="targetPoint" />
            <Array as="points">
              <mxPoint x="-75" y="1020" />
              <mxPoint x="300" y="1020" />
            </Array>
          </mxGeometry>
        </mxCell>
        <mxCell id="4JZ9h9YK1ufNmpq5-3Gf-42" value="Обращение к памяти ВМ&amp;nbsp;&lt;div&gt;для чтения значений переданных параметров&amp;nbsp;&lt;/div&gt;&lt;div&gt;и записи возвращаемого значения&lt;/div&gt;" style="text;html=1;align=left;verticalAlign=middle;resizable=0;points=[];autosize=1;strokeColor=none;fillColor=none;" parent="1" vertex="1">
          <mxGeometry x="10" y="950" width="280" height="60" as="geometry" />
        </mxCell>
        <mxCell id="4JZ9h9YK1ufNmpq5-3Gf-56" value="lcvm_port_io.c&lt;div&gt;реализации обращения к аппаратным ресурсам через IO-переменные&lt;/div&gt;" style="rounded=0;whiteSpace=wrap;html=1;fillColor=#dae8fc;strokeColor=#6c8ebf;" parent="1" vertex="1">
          <mxGeometry x="-200" y="560" width="170" height="80" as="geometry" />
        </mxCell>
        <mxCell id="4JZ9h9YK1ufNmpq5-3Gf-57" value="" style="shape=flexArrow;endArrow=classic;html=1;rounded=0;exitX=0.75;exitY=1;exitDx=0;exitDy=0;fillColor=#dae8fc;strokeColor=#6c8ebf;entryX=0.001;entryY=0.167;entryDx=0;entryDy=0;entryPerimeter=0;" parent="1" source="4JZ9h9YK1ufNmpq5-3Gf-56" target="4JZ9h9YK1ufNmpq5-3Gf-1" edge="1">
          <mxGeometry width="50" height="50" relative="1" as="geometry">
            <mxPoint x="-120" y="730" as="sourcePoint" />
            <mxPoint x="220" y="820" as="targetPoint" />
            <Array as="points">
              <mxPoint x="-73" y="730" />
              <mxPoint x="150" y="730" />
              <mxPoint x="240" y="730" />
            </Array>
          </mxGeometry>
        </mxCell>
        <mxCell id="4JZ9h9YK1ufNmpq5-3Gf-59" value="Обращение к памяти ВМ&amp;nbsp;&lt;div&gt;для чтения значений Output-переменных&amp;nbsp;&lt;/div&gt;&lt;div&gt;и записи значений Input-переменных&lt;/div&gt;" style="text;html=1;align=left;verticalAlign=middle;resizable=0;points=[];autosize=1;strokeColor=none;fillColor=none;" parent="1" vertex="1">
          <mxGeometry x="10" y="670" width="260" height="60" as="geometry" />
        </mxCell>
        <mxCell id="4JZ9h9YK1ufNmpq5-3Gf-61" value="" style="shape=flexArrow;endArrow=classic;html=1;rounded=0;exitX=0;exitY=0.5;exitDx=0;exitDy=0;entryX=1;entryY=0.5;entryDx=0;entryDy=0;fillColor=#dae8fc;strokeColor=#6c8ebf;" parent="1" source="4JZ9h9YK1ufNmpq5-3Gf-20" target="4JZ9h9YK1ufNmpq5-3Gf-56" edge="1">
          <mxGeometry width="50" height="50" relative="1" as="geometry">
            <mxPoint x="100" y="590" as="sourcePoint" />
            <mxPoint x="150" y="540" as="targetPoint" />
          </mxGeometry>
        </mxCell>
        <mxCell id="4JZ9h9YK1ufNmpq5-3Gf-62" value="Синхронизация обращения к аппаратуре&amp;nbsp;&lt;div&gt;с временем цикла программы&lt;/div&gt;" style="text;html=1;align=left;verticalAlign=middle;resizable=0;points=[];autosize=1;strokeColor=none;fillColor=none;" parent="1" vertex="1">
          <mxGeometry x="10" y="560" width="260" height="40" as="geometry" />
        </mxCell>
        <mxCell id="4JZ9h9YK1ufNmpq5-3Gf-65" value="Драйверы&lt;div&gt;устройств&lt;/div&gt;" style="rounded=0;whiteSpace=wrap;html=1;fillColor=#d5e8d4;strokeColor=#82b366;" parent="1" vertex="1">
          <mxGeometry x="-480" y="380" width="200" height="100" as="geometry" />
        </mxCell>
        <mxCell id="Y_vd4BQVCZv7Dsui712i-7" style="edgeStyle=orthogonalEdgeStyle;rounded=0;orthogonalLoop=1;jettySize=auto;html=1;exitX=0.75;exitY=0;exitDx=0;exitDy=0;entryX=0;entryY=0.5;entryDx=0;entryDy=0;fillColor=#d5e8d4;strokeColor=#82b366;" parent="1" source="4JZ9h9YK1ufNmpq5-3Gf-68" target="4JZ9h9YK1ufNmpq5-3Gf-70" edge="1">
          <mxGeometry relative="1" as="geometry" />
        </mxCell>
        <mxCell id="d5LIiJNJ_tfaaFNY0r7_-2" style="edgeStyle=orthogonalEdgeStyle;rounded=0;orthogonalLoop=1;jettySize=auto;html=1;exitX=0.5;exitY=0;exitDx=0;exitDy=0;entryX=0.5;entryY=1;entryDx=0;entryDy=0;fillColor=#d5e8d4;strokeColor=#82b366;" parent="1" source="4JZ9h9YK1ufNmpq5-3Gf-68" target="d5LIiJNJ_tfaaFNY0r7_-1" edge="1">
          <mxGeometry relative="1" as="geometry" />
        </mxCell>
        <mxCell id="d5LIiJNJ_tfaaFNY0r7_-9" style="edgeStyle=orthogonalEdgeStyle;rounded=0;orthogonalLoop=1;jettySize=auto;html=1;exitX=0.25;exitY=1;exitDx=0;exitDy=0;entryX=0.25;entryY=0;entryDx=0;entryDy=0;fillColor=#d5e8d4;strokeColor=#82b366;strokeWidth=3;" parent="1" source="4JZ9h9YK1ufNmpq5-3Gf-68" target="d5LIiJNJ_tfaaFNY0r7_-4" edge="1">
          <mxGeometry relative="1" as="geometry" />
        </mxCell>
        <mxCell id="4JZ9h9YK1ufNmpq5-3Gf-68" value="lcvm_supervisor.c&lt;div&gt;Управляет Runtime,&lt;/div&gt;&lt;div&gt;отвечает за&amp;nbsp;&lt;/div&gt;&lt;div&gt;загрузку и&amp;nbsp;&lt;/div&gt;&lt;div&gt;сохранение программы&lt;/div&gt;" style="rounded=0;whiteSpace=wrap;html=1;fillColor=#d5e8d4;strokeColor=#82b366;" parent="1" vertex="1">
          <mxGeometry x="-240" y="180" width="200" height="100" as="geometry" />
        </mxCell>
        <mxCell id="4JZ9h9YK1ufNmpq5-3Gf-69" value="" style="shape=flexArrow;endArrow=classic;html=1;rounded=0;entryX=0.5;entryY=0;entryDx=0;entryDy=0;fillColor=#d5e8d4;strokeColor=#82b366;exitX=1;exitY=0.75;exitDx=0;exitDy=0;" parent="1" source="4JZ9h9YK1ufNmpq5-3Gf-68" target="4JZ9h9YK1ufNmpq5-3Gf-20" edge="1">
          <mxGeometry width="50" height="50" relative="1" as="geometry">
            <mxPoint x="-20" y="490" as="sourcePoint" />
            <mxPoint x="190" y="460" as="targetPoint" />
            <Array as="points">
              <mxPoint x="330" y="255" />
            </Array>
          </mxGeometry>
        </mxCell>
        <mxCell id="4JZ9h9YK1ufNmpq5-3Gf-70" value="lcvm/public_api.h" style="rounded=1;whiteSpace=wrap;html=1;" parent="1" vertex="1">
          <mxGeometry x="40" y="120" width="120" height="40" as="geometry" />
        </mxCell>
        <mxCell id="4JZ9h9YK1ufNmpq5-3Gf-74" value="Callback изменения состояния Runtime" style="text;html=1;align=left;verticalAlign=middle;resizable=0;points=[];autosize=1;strokeColor=none;fillColor=none;" parent="1" vertex="1">
          <mxGeometry x="5" y="175" width="240" height="30" as="geometry" />
        </mxCell>
        <mxCell id="4JZ9h9YK1ufNmpq5-3Gf-77" value="Управление Runtime" style="text;html=1;align=left;verticalAlign=middle;resizable=0;points=[];autosize=1;strokeColor=none;fillColor=none;" parent="1" vertex="1">
          <mxGeometry x="5" y="215" width="140" height="30" as="geometry" />
        </mxCell>
        <mxCell id="4JZ9h9YK1ufNmpq5-3Gf-78" value="Обращение к памяти&amp;nbsp;&lt;div&gt;и состоянию&amp;nbsp; регистров ВМ&lt;/div&gt;" style="text;html=1;align=left;verticalAlign=middle;resizable=0;points=[];autosize=1;strokeColor=none;fillColor=none;" parent="1" vertex="1">
          <mxGeometry x="10" y="380" width="180" height="40" as="geometry" />
        </mxCell>
        <mxCell id="Y_vd4BQVCZv7Dsui712i-1" value="lcvm/internal_api.h" style="rounded=1;whiteSpace=wrap;html=1;" parent="1" vertex="1">
          <mxGeometry x="40" y="1080" width="120" height="40" as="geometry" />
        </mxCell>
        <mxCell id="d5LIiJNJ_tfaaFNY0r7_-1" value="lcvm_supervisor.h" style="rounded=1;whiteSpace=wrap;html=1;fillColor=#d5e8d4;strokeColor=#82b366;" parent="1" vertex="1">
          <mxGeometry x="-200" y="80" width="120" height="40" as="geometry" />
        </mxCell>
        <mxCell id="d5LIiJNJ_tfaaFNY0r7_-3" value="" style="endArrow=none;dashed=1;html=1;rounded=0;" parent="1" edge="1">
          <mxGeometry width="50" height="50" relative="1" as="geometry">
            <mxPoint x="-660" y="520" as="sourcePoint" />
            <mxPoint y="520" as="targetPoint" />
          </mxGeometry>
        </mxCell>
        <mxCell id="d5LIiJNJ_tfaaFNY0r7_-6" style="edgeStyle=orthogonalEdgeStyle;rounded=0;orthogonalLoop=1;jettySize=auto;html=1;exitX=0.75;exitY=0;exitDx=0;exitDy=0;entryX=0;entryY=0.5;entryDx=0;entryDy=0;fillColor=#d5e8d4;strokeColor=#82b366;strokeWidth=1;" parent="1" source="d5LIiJNJ_tfaaFNY0r7_-4" target="d5LIiJNJ_tfaaFNY0r7_-5" edge="1">
          <mxGeometry relative="1" as="geometry" />
        </mxCell>
        <mxCell id="d5LIiJNJ_tfaaFNY0r7_-4" value="exchange.c&lt;br&gt;обмен командами с ПК" style="rounded=0;whiteSpace=wrap;html=1;fillColor=#d5e8d4;strokeColor=#82b366;" parent="1" vertex="1">
          <mxGeometry x="-240" y="380" width="200" height="100" as="geometry" />
        </mxCell>
        <mxCell id="d5LIiJNJ_tfaaFNY0r7_-5" value="lcvm/debug_api.h" style="rounded=1;whiteSpace=wrap;html=1;" parent="1" vertex="1">
          <mxGeometry x="40" y="300" width="120" height="40" as="geometry" />
        </mxCell>
        <mxCell id="d5LIiJNJ_tfaaFNY0r7_-7" value="" style="shape=flexArrow;endArrow=classic;html=1;rounded=0;exitX=0.5;exitY=0;exitDx=0;exitDy=0;fillColor=#d5e8d4;strokeColor=#82b366;" parent="1" source="d5LIiJNJ_tfaaFNY0r7_-4" edge="1">
          <mxGeometry width="50" height="50" relative="1" as="geometry">
            <mxPoint x="-190" y="330" as="sourcePoint" />
            <mxPoint x="-140" y="280" as="targetPoint" />
          </mxGeometry>
        </mxCell>
        <mxCell id="d5LIiJNJ_tfaaFNY0r7_-10" value="Управление" style="text;html=1;align=left;verticalAlign=middle;whiteSpace=wrap;rounded=0;rotation=-90;" parent="1" vertex="1">
          <mxGeometry x="-195" y="325" width="80" height="20" as="geometry" />
        </mxCell>
        <mxCell id="d5LIiJNJ_tfaaFNY0r7_-11" value="Изменение состояния Runtime" style="text;html=1;align=left;verticalAlign=middle;whiteSpace=wrap;rounded=0;rotation=-90;" parent="1" vertex="1">
          <mxGeometry x="-260" y="300" width="80" height="50" as="geometry" />
        </mxCell>
        <mxCell id="d5LIiJNJ_tfaaFNY0r7_-13" value="config/&lt;span style=&quot;text-wrap-mode: nowrap;&quot;&gt;lcvm_conf.h&lt;/span&gt;&lt;div&gt;&lt;span style=&quot;text-wrap-mode: nowrap;&quot;&gt;конфиг LCVM&lt;br&gt;располагается&amp;nbsp;&lt;/span&gt;&lt;/div&gt;&lt;div&gt;&lt;span style=&quot;text-wrap-mode: nowrap;&quot;&gt;в основном проекте&lt;/span&gt;&lt;/div&gt;" style="rounded=1;whiteSpace=wrap;html=1;" parent="1" vertex="1">
          <mxGeometry x="490" y="700" width="200" height="80" as="geometry" />
        </mxCell>
        <mxCell id="d5LIiJNJ_tfaaFNY0r7_-17" value="" style="endArrow=classic;html=1;rounded=0;entryX=0;entryY=0.5;entryDx=0;entryDy=0;" parent="1" target="4JZ9h9YK1ufNmpq5-3Gf-3" edge="1">
          <mxGeometry width="50" height="50" relative="1" as="geometry">
            <mxPoint x="390" y="909.96" as="sourcePoint" />
            <mxPoint x="480" y="909.7" as="targetPoint" />
          </mxGeometry>
        </mxCell>
        <mxCell id="d5LIiJNJ_tfaaFNY0r7_-18" value="" style="endArrow=classic;html=1;rounded=0;entryX=0;entryY=0.5;entryDx=0;entryDy=0;" parent="1" target="4JZ9h9YK1ufNmpq5-3Gf-2" edge="1">
          <mxGeometry width="50" height="50" relative="1" as="geometry">
            <mxPoint x="390" y="870.17" as="sourcePoint" />
            <mxPoint x="480" y="869.6999999999999" as="targetPoint" />
          </mxGeometry>
        </mxCell>
        <mxCell id="d5LIiJNJ_tfaaFNY0r7_-19" value="" style="endArrow=classic;html=1;rounded=0;" parent="1" edge="1">
          <mxGeometry width="50" height="50" relative="1" as="geometry">
            <mxPoint x="390" y="830" as="sourcePoint" />
            <mxPoint x="490" y="830" as="targetPoint" />
          </mxGeometry>
        </mxCell>
        <mxCell id="d5LIiJNJ_tfaaFNY0r7_-25" value="" style="endArrow=classic;html=1;rounded=0;" parent="1" edge="1">
          <mxGeometry width="50" height="50" relative="1" as="geometry">
            <mxPoint x="390" y="759.57" as="sourcePoint" />
            <mxPoint x="490" y="759.57" as="targetPoint" />
          </mxGeometry>
        </mxCell>
        <mxCell id="d5LIiJNJ_tfaaFNY0r7_-26" value="&lt;span style=&quot;font-size: 33px;&quot;&gt;Application&lt;/span&gt;" style="text;html=1;align=center;verticalAlign=middle;resizable=0;points=[];autosize=1;strokeColor=none;fillColor=none;" parent="1" vertex="1">
          <mxGeometry x="-550" y="70" width="180" height="50" as="geometry" />
        </mxCell>
        <mxCell id="d5LIiJNJ_tfaaFNY0r7_-28" value="" style="shape=flexArrow;endArrow=classic;html=1;rounded=0;exitX=0;exitY=0.75;exitDx=0;exitDy=0;entryX=0.25;entryY=1;entryDx=0;entryDy=0;fillColor=#fff2cc;strokeColor=#d6b656;" parent="1" source="4JZ9h9YK1ufNmpq5-3Gf-33" target="4JZ9h9YK1ufNmpq5-3Gf-65" edge="1">
          <mxGeometry width="50" height="50" relative="1" as="geometry">
            <mxPoint x="-530" y="760" as="sourcePoint" />
            <mxPoint x="-480" y="710" as="targetPoint" />
            <Array as="points">
              <mxPoint x="-430" y="920" />
            </Array>
          </mxGeometry>
        </mxCell>
        <mxCell id="d5LIiJNJ_tfaaFNY0r7_-29" value="" style="shape=flexArrow;endArrow=classic;html=1;rounded=0;exitX=0;exitY=0.25;exitDx=0;exitDy=0;entryX=0.75;entryY=1;entryDx=0;entryDy=0;fillColor=#dae8fc;strokeColor=#6c8ebf;" parent="1" source="4JZ9h9YK1ufNmpq5-3Gf-56" target="4JZ9h9YK1ufNmpq5-3Gf-65" edge="1">
          <mxGeometry width="50" height="50" relative="1" as="geometry">
            <mxPoint x="-370" y="530" as="sourcePoint" />
            <mxPoint x="-320" y="480" as="targetPoint" />
            <Array as="points">
              <mxPoint x="-330" y="580" />
            </Array>
          </mxGeometry>
        </mxCell>
        <mxCell id="d5LIiJNJ_tfaaFNY0r7_-30" value="&lt;font style=&quot;font-size: 33px;&quot;&gt;Архитектура LCVM&lt;/font&gt;" style="text;html=1;align=center;verticalAlign=middle;resizable=0;points=[];autosize=1;strokeColor=none;fillColor=none;" parent="1" vertex="1">
          <mxGeometry x="-160" y="-50" width="320" height="50" as="geometry" />
        </mxCell>
      </root>
    </mxGraphModel>
  </diagram>
</mxfile>
